<svg id="Layer_1" data-name="Layer 1" xmlns="http://www.w3.org/2000/svg" viewBox="0 0 1000 1000"><defs><style>.cls-1{fill:#d9296b;}.cls-2{fill:#fff;}</style></defs><path class="cls-1" d="M1005.59,500.3q0,24.57-2.4,49T996,597.85q-4.8,24.09-11.92,47.59t-16.54,46.2q-9.39,22.7-21,44.36t-25.23,42.09q-13.65,20.42-29.23,39.41t-33,36.36q-17.37,17.37-36.36,32.95T783.38,916Q763,929.69,741.29,941.26t-44.35,21q-22.7,9.4-46.2,16.53t-47.6,11.93q-24.09,4.78-48.54,7.2t-49,2.4q-24.55,0-49-2.4t-48.54-7.2q-24.09-4.8-47.6-11.93t-46.2-16.53q-22.69-9.39-44.35-21T227.81,916q-20.43-13.65-39.41-29.23T152,853.86q-17.37-17.37-32.95-36.36T89.86,778.09Q76.21,757.66,64.63,736t-21-44.36Q34.26,669,27.12,645.44T15.2,597.85Q10.42,573.74,8,549.31t-2.41-49q0-24.56,2.41-49t7.2-48.53q4.8-24.11,11.92-47.6T43.65,309q9.41-22.69,21-44.36t25.23-42.09q13.65-20.41,29.23-39.41T152,146.75q17.37-17.37,36.36-32.95t39.41-29.23q20.43-13.65,42.09-25.23t44.35-21q22.69-9.39,46.2-16.53t47.6-11.92q24.09-4.8,48.54-7.2t49-2.41q24.57,0,49,2.41t48.54,7.2q24.09,4.79,47.6,11.92t46.2,16.53q22.69,9.41,44.35,21t42.09,25.23q20.43,13.64,39.41,29.23t36.36,33q17.37,17.37,33,36.35t29.23,39.41Q935,242.94,946.56,264.6t21,44.36q9.4,22.69,16.53,46.2T996,402.76q4.78,24.09,7.2,48.53T1005.59,500.3Z"/><path class="cls-2" d="M796.45,201.73q-25.8-8.05-55.36-23.11t-69.33-35.47q-49.46,62.35-77.94,98.9T553,299.56q-12.36,21-12.36,36,0,8.6,5.92,19.89t24.18,27.94q18.27,16.67,53.75,42.47v98.89H399.79V392.54L274,313,302,274.29q25.8,12.91,42.46,20.43t27.95,10.21a84.31,84.31,0,0,0,18.82,2.69q26.87,0,44.07-15.59t26.87-39.23q9.67-23.66,9.68-44.08a158.23,158.23,0,0,1-53.75-7q-25.8-8.05-55.36-23.11t-69.34-35.47q-49.44,62.35-77.93,98.9t-40.85,57.51q-12.36,21-12.36,36,0,8.6,5.91,19.89t24.19,27.94q18.27,16.67,53.75,42.47v291.3q0,43,33.86,78.48t94.06,57q60.19,21.5,137.59,21.5,76.32,0,136.52-21t95.13-56.44q34.93-35.46,34.94-79.55V392.54L652.41,313l28-38.7q25.8,12.91,41.92,20.43t28,10.21a91.22,91.22,0,0,0,19.35,2.69q26.86,0,44.07-15.59t26.87-39.23q9.68-23.66,9.68-44.08A158.26,158.26,0,0,1,796.45,201.73ZM611,741.9q-13.44,18.27-38.7,28.48T511.59,780.6q-33.33,0-58.59-9.68T413.77,743q-14-18.27-14-44.07V622.58H624.46V698.9Q624.46,723.64,611,741.9Z"/></svg>