<svg id="Layer_1" data-name="Layer 1" xmlns="http://www.w3.org/2000/svg" viewBox="0 0 1000 1000"><defs><style>.cls-1{fill:#d9296b;}.cls-2{fill:#fff;}</style></defs><path class="cls-1" d="M999.71,500.48q0,24.56-2.4,49T990.11,598q-4.8,24.09-11.93,47.6t-16.53,46.2q-9.39,22.7-21,44.36t-25.23,42.08q-13.65,20.43-29.23,39.41t-33,36.36q-17.37,17.37-36.36,33T777.5,916.21q-20.43,13.65-42.09,25.23t-44.35,21q-22.69,9.41-46.2,16.53t-47.6,11.92q-24.09,4.78-48.54,7.2t-49,2.41q-24.56,0-49-2.41t-48.54-7.2q-24.09-4.8-47.6-11.92t-46.2-16.53q-22.69-9.4-44.35-21t-42.09-25.23Q201.5,902.56,182.52,887t-36.36-33q-17.37-17.37-32.95-36.36T84,778.26q-13.65-20.41-25.23-42.08t-21-44.36q-9.39-22.7-16.53-46.2T9.32,598q-4.78-24.09-7.2-48.53t-2.41-49q0-24.57,2.41-49t7.2-48.54q4.8-24.09,11.92-47.59t16.53-46.2q9.4-22.69,21-44.36T84,222.69q13.65-20.41,29.23-39.41t33-36.35q17.37-17.37,36.36-33t39.41-29.23Q242.36,71.09,264,59.52t44.35-21q22.69-9.4,46.2-16.53t47.6-11.92q24.09-4.8,48.54-7.2t49-2.41q24.57,0,49,2.41t48.54,7.2q24.09,4.79,47.6,11.92t46.2,16.53q22.7,9.39,44.35,21T777.5,84.74Q797.93,98.39,816.91,114t36.36,33q17.37,17.37,33,36.35t29.23,39.41q13.65,20.43,25.23,42.09t21,44.36q9.4,22.68,16.53,46.2t11.93,47.59q4.78,24.09,7.2,48.54T999.71,500.48Z"/><polygon class="cls-2" points="691.33 198.36 499.62 666.58 307.91 198.36 204.12 198.36 204.12 801.88 294.51 801.88 294.51 399.56 460.29 801.88 540.34 801.88 704.73 402.94 704.73 801.88 795.12 801.88 795.12 198.36 691.33 198.36"/></svg>